# xmcd CD database file
#
# Track frame offsets:
#       150
#       13084
#       26457
#       38293
#       51692
#       64946
#       76004
#       96143
#       111465
#       121478
#       129132
#       142871
#       154875
#       169723
#       184497
#       196226
#       204102
#       220443
#       236962
#       245998
#       262132
#
# Disc length: 3728 seconds
#
# Revision: 1
# Processed by: cddbd v1.5.2PL0 Copyright (c) Steve Scherf et al.
# Submitted via: jack 3.1.1
#
DISCID=320e8e15
DTITLE=Fleetwood Mac - Transmissions 1867-1968 CD1
DYEAR=2019
DGENRE=Blues
TTITLE0=Long Grey Mare
TTITLE1=Baby Please Set A Date
TTITLE2=Looking For Somebody
TTITLE3=I Believe My Time Ain't Long
TTITLE4=Got To Move
TTITLE5=I Can't Hold Out
TTITLE6=Sweeit Little Angel
TTITLE7=Bee-I-Bicky-Bop
TTITLE8=Where You Belong
TTITLE9=Don't Be Cruel
TTITLE10=The Sun Is Shining
TTITLE11=The World Keep On Turning
TTITLE12=Mean Old World
TTITLE13=Please Find My Baby
TTITLE14=Black Magic Woman
TTITLE15=Peggy Sue Got Married
TTITLE16=How Blue Can You Get!
TTITLE17=My Baby's Sweeter
TTITLE18=Long Grey Mare
TTITLE19=Buzz Me Baby
TTITLE20=I'm So Lonely And Blue
EXTD=
EXTT0=
EXTT1=
EXTT2=
EXTT3=
EXTT4=
EXTT5=
EXTT6=
EXTT7=
EXTT8=
EXTT9=
EXTT10=
EXTT11=
EXTT12=
EXTT13=
EXTT14=
EXTT15=
EXTT16=
EXTT17=
EXTT18=
EXTT19=
EXTT20=
PLAYORDER=
